<?xml version="1.0" encoding="iso-8859-1"?>
<svg height="800px" width="800px" version="1.1" id="Layer_1" xmlns="http://www.w3.org/2000/svg" xmlns:xlink="http://www.w3.org/1999/xlink"
	 viewBox="0 0 512.002 512.002" xml:space="preserve">
<g>
	<g>
		<path d="M394.105,62.873h-36.277V19.463c0.168-2.074-0.002-4.209-0.599-6.33c-2.697-9.574-12.645-15.152-22.221-12.455
			L112.62,63.309c-15.376,2.528-27.147,15.905-27.147,31.986V479.58c0,17.878,14.544,32.422,32.422,32.422h276.212
			c17.878,0,32.422-14.544,32.422-32.422V95.295C426.527,77.417,411.983,62.873,394.105,62.873z M321.806,41.825v21.048h-74.74
			L321.806,41.825z M390.503,475.976H121.496V98.897h269.007V475.976z"/>
	</g>
</g>
<g>
	<g>
		<path d="M335.614,155.058c-20.509-20.509-53.882-20.511-74.395,0l-4.317,4.317l-4.317-4.317
			c-20.36-20.361-53.398-20.51-73.94-0.448c-9.234,8.256-14.65,21.563-14.884,36.65c-0.239,15.501,5.103,29.478,14.675,38.435
			l65.731,65.73l0.001,0.001c3.517,3.517,8.127,5.276,12.736,5.276c4.609,0,9.22-1.759,12.736-5.276l65.974-65.974
			C356.125,208.942,356.125,175.568,335.614,155.058z M310.143,203.979l-53.238,53.238l-53.239-53.239l-0.586-0.56
			c-1.692-1.547-3.369-6.004-3.297-11.53c0.078-6.117,2.137-9.783,2.88-10.425l1.006-0.932c3.131-3.131,7.294-4.856,11.722-4.856
			c4.429,0,8.592,1.726,11.725,4.856l17.043,17.043c0.004,0.004,0.007,0.008,0.011,0.012c7.036,7.033,18.437,7.032,25.474-0.001
			l17.052-17.054c6.466-6.464,16.983-6.464,23.448,0C316.608,186.996,316.608,197.515,310.143,203.979z"/>
	</g>
</g>
<g>
	<g>
		<path d="M312.11,336.291H201.688c-9.948,0-18.012,8.065-18.012,18.012c0,9.948,8.065,18.012,18.012,18.012H312.11
			c9.948,0,18.012-8.065,18.012-18.012C330.122,344.356,322.058,336.291,312.11,336.291z"/>
	</g>
</g>
<g>
	<g>
		<path d="M312.11,386.726H201.688c-9.948,0-18.012,8.065-18.012,18.012c0,9.948,8.065,18.012,18.012,18.012H312.11
			c9.948,0,18.012-8.065,18.012-18.012C330.122,394.79,322.058,386.726,312.11,386.726z"/>
	</g>
</g>
</svg>